HIERARCHY
ROOT Hips
{
	OFFSET 0.00000 0.00000 0.00000
	CHANNELS 6 Xposition Yposition Zposition Zrotation Yrotation Xrotation 
	JOINT LHipJoint
	{
		OFFSET 0 0 0
		CHANNELS 3 Zrotation Yrotation Xrotation
		JOINT LeftHip
		{
			OFFSET 1.55766 -1.60504 1.11378
			CHANNELS 3 Zrotation Yrotation Xrotation
			JOINT LeftKnee
			{
				OFFSET 2.29047 -6.29302 0.00000
				CHANNELS 3 Zrotation Yrotation Xrotation
				JOINT LeftAnkle
				{
					OFFSET 2.52265 -6.93093 0.00000
					CHANNELS 3 Zrotation Yrotation Xrotation
					JOINT LeftToe
					{
						OFFSET 0.17633 -0.48446 2.02656
						CHANNELS 3 Zrotation Yrotation Xrotation
						End Site
						{
							OFFSET 0.00000 -0.00000 1.04989
						}
					}
				}
			}
		}
	}
	JOINT RHipJoint
	{
		OFFSET 0 0 0
		CHANNELS 3 Zrotation Yrotation Xrotation
		JOINT RightHip
		{
			OFFSET -1.48599 -1.60504 1.11378
			CHANNELS 3 Zrotation Yrotation Xrotation
			JOINT RightKnee
			{
				OFFSET -2.27280 -6.24448 0.00000
				CHANNELS 3 Zrotation Yrotation Xrotation
				JOINT RightAnkle
				{
					OFFSET -2.50834 -6.89161 0.00000
					CHANNELS 3 Zrotation Yrotation Xrotation
					JOINT RightToe
					{
						OFFSET -0.26967 -0.74090 2.08741
						CHANNELS 3 Zrotation Yrotation Xrotation
						End Site
						{
							OFFSET -0.00000 -0.00000 1.10614
						}
					}
				}
			}
		}
	}
	JOINT lowerback
	{
		OFFSET 0 0 0
		CHANNELS 3 Zrotation Yrotation Xrotation
		JOINT Chest
		{
			OFFSET 0.06481 2.02437 -0.08472
			CHANNELS 3 Zrotation Yrotation Xrotation
			JOINT Chest2
			{
				OFFSET 0.00015 1.96711 0.18069
				CHANNELS 3 Zrotation Yrotation Xrotation
				JOINT lowerneck
				{
					OFFSET 0 0 0
					CHANNELS 3 Zrotation Yrotation Xrotation
					JOINT Neck
					{
						OFFSET -0.29961 1.68293 -0.13041
						CHANNELS 3 Zrotation Yrotation Xrotation
						JOINT Head
						{
							OFFSET 0.59697 1.61501 -0.14669
							CHANNELS 3 Zrotation Yrotation Xrotation
							End Site
							{
								OFFSET 0.22973 1.74906 -0.10148
							}
						}
					}
				}
				JOINT LeftCollar
				{
					OFFSET 0 0 0
					CHANNELS 3 Zrotation Yrotation Xrotation
					JOINT LeftShoulder
					{
						OFFSET 3.37968 1.02893 0.31147
CHANNELS 3 Zrotation Xrotation Yrotation
						JOINT LeftElbow
						{
OFFSET 0 -5.198070 -0.000000
CHANNELS 3 Zrotation Xrotation Yrotation
							JOINT LeftWrist
							{
OFFSET 0 -3.093700 -0.000000
CHANNELS 3 Zrotation Xrotation Yrotation
								JOINT lhand
								{
									OFFSET 0 0 0
CHANNELS 3 Zrotation Xrotation Yrotation
									JOINT LFingers
									{
OFFSET 0 -0.672630 -0.000000
CHANNELS 3 Zrotation Xrotation Yrotation
										End Site
										{
OFFSET 0 -0.542290 -0.000000
										}
									}
								}
								JOINT LThumb
								{
OFFSET 0 0.000000 0.000000
CHANNELS 3 Zrotation Xrotation Yrotation
									End Site
									{
OFFSET 0 -0.550570 0.550570
									}
								}
							}
						}
					}
				}
				JOINT RightCollar
				{
					OFFSET 0 0 0
					CHANNELS 3 Zrotation Yrotation Xrotation
					JOINT RightShoulder
					{
						OFFSET -3.38254 0.96355 -0.16120
CHANNELS 3 Zrotation Xrotation Yrotation
						JOINT RightElbow
						{
OFFSET 0 -5.452220 -0.000000
CHANNELS 3 Zrotation Xrotation Yrotation
							JOINT RightWrist
							{
OFFSET 0 -3.012840 -0.000000
CHANNELS 3 Zrotation Xrotation Yrotation
								JOINT rhand
								{
									OFFSET 0 0 0
CHANNELS 3 Zrotation Xrotation Yrotation
									JOINT RFingers
									{
OFFSET 0 -0.622300 -0.000000
CHANNELS 3 Zrotation Xrotation Yrotation
										End Site
										{
OFFSET 0 -0.501710 -0.000000
										}
									}
								}
								JOINT RThumb
								{
OFFSET 0 0.000000 0.000000
CHANNELS 3 Zrotation Xrotation Yrotation
									End Site
									{
OFFSET 0 -0.509370 0.509370
									}
								}
							}
						}
					}
				}
			}
		}
	}
}
MOTION
Frames: 5
Frame Time: 0.008333333333333333
-0.703400 15.393300 35.725700 -179.528000 -34.130600 -167.786000 0.000000 0.000000 0.000000 -10.712400 2.174400 -38.677000 13.557100 18.974200 70.847200 -0.018900 2.491700 -1.440400 1.930700 -8.720300 -24.924100 0.000000 0.000000 0.000000 23.467700 11.859500 -24.223900 -4.649200 -12.977500 39.284300 -1.744900 7.819500 -23.673500 -0.796900 5.697800 -15.910200 0.123300 0.723400 -1.684300 -2.003400 0.682000 -5.055600 -2.144100 0.196600 -4.239200 -30.341400 -6.927700 18.391200 44.273100 -19.225700 -5.180100 23.792000 -13.194400 3.838700 0.000000 -0.000000 0.000000 11.109600 10.969000 -26.269800 45.372900 -50.949900 22.528000 13.730400 -48.564900 12.353900 0.000000 0.000000 0.000000 -7.125000 0.000000 0.000000 -9.375600 17.376800 -6.232100 0.000000 -0.000000 0.000000 -2.654900 12.313400 12.327200 -20.435500 -31.163500 -5.755000 10.068200 19.803700 6.643500 0.000000 0.000000 0.000000 7.125000 0.000000 -0.000000 29.814900 35.085700 8.216600
-0.767131 15.432520 35.642966 -179.609703 -32.357568 -167.757302 0.000000 0.000000 0.000000 -10.879196 1.567226 -39.646122 13.575962 18.980323 70.905155 0.000471 0.910675 -1.433563 2.239315 -9.346066 -26.885226 0.000000 0.000000 0.000000 23.335823 12.635451 -22.944542 -4.413820 -12.691147 38.223756 -1.703882 8.507789 -23.386142 -0.764787 5.584299 -15.583091 0.351981 0.796494 -1.706823 -2.007811 0.780668 -5.039043 -2.278374 0.236278 -4.202010 -30.526717 -7.113019 17.443660 44.235936 -19.344614 -5.104369 23.617036 -13.168901 4.133173 0.000000 0.000000 0.000000 10.410341 11.641942 -24.645268 45.143522 -50.838515 22.349954 14.899175 -49.536693 12.455854 0.000000 0.000000 0.000000 -7.125000 0.000000 0.000000 -8.565143 17.192989 -5.715065 0.000000 0.000000 0.000000 -3.191753 12.763745 14.085964 -20.565685 -31.317785 -5.822556 10.041923 18.570619 8.561374 0.000000 0.000000 0.000000 7.125000 0.000000 0.000000 30.476070 36.772975 6.976366
-0.832637 15.473164 35.557493 -179.772304 -30.582332 -167.580194 0.000000 0.000000 0.000000 -11.200344 0.692262 -40.663551 13.501337 18.955737 70.675544 0.005777 0.602975 -1.790383 2.436820 -9.721517 -28.080078 0.000000 0.000000 0.000000 23.085570 13.621473 -21.742726 -4.193147 -12.412687 37.208548 -1.657133 8.976496 -23.069161 -0.745566 5.515493 -15.384782 0.522082 0.951707 -1.795736 -2.107859 0.969745 -5.166094 -2.480863 0.313629 -4.272528 -30.502747 -7.298704 16.832161 44.142323 -19.455014 -5.136521 23.373519 -13.158096 4.278940 0.000000 0.000000 0.000000 9.909471 12.568591 -23.263481 44.730582 -50.635642 22.030258 15.720965 -50.497793 12.510659 0.000000 0.000000 0.000000 -7.125000 0.000000 0.000000 -7.995653 17.077443 -5.347690 0.000000 0.000000 0.000000 -3.558512 13.490581 15.763182 -20.712803 -31.491513 -5.899215 6.528603 17.630933 10.098694 0.000000 0.000000 0.000000 7.125000 0.000000 0.000000 28.340929 38.436215 5.085511
-0.900220 15.509281 35.471627 -179.922900 -28.769203 -167.408514 0.000000 0.000000 0.000000 -11.447833 -0.207361 -41.640116 13.365335 18.910081 70.256363 0.011335 0.452635 -2.230879 2.601189 -10.019464 -29.039967 0.000000 0.000000 0.000000 22.814897 14.562666 -20.608997 -3.991027 -12.148384 36.259006 -1.611174 9.554483 -22.771680 -0.722777 5.432529 -15.146337 0.705811 1.118342 -1.865153 -2.209909 1.171879 -5.312876 -2.693948 0.395101 -4.372227 -30.475683 -7.463370 16.301772 44.072215 -19.545306 -5.231508 23.167784 -13.149393 4.385246 0.000000 0.000000 0.000000 9.363822 13.487843 -21.837588 44.213082 -50.377004 21.630931 16.476030 -51.449366 12.546763 0.000000 0.000000 0.000000 -7.125000 0.000000 0.000000 -7.472489 16.983334 -5.007048 0.000000 0.000000 0.000000 -3.957061 14.197899 17.315646 -20.836917 -31.637442 -5.964169 3.699737 16.833618 11.597642 0.000000 0.000000 0.000000 7.125000 0.000000 0.000000 26.644964 40.025172 3.565847
-0.970678 15.542774 35.384160 -180.076110 -26.905629 -167.207098 0.000000 0.000000 0.000000 -11.641372 -1.227529 -42.569470 13.145565 18.833985 69.576852 0.018030 0.698862 -2.891859 2.690378 -10.176092 -29.548850 0.000000 0.000000 0.000000 22.498834 15.472709 -19.566594 -3.806216 -11.897691 35.371327 -1.565341 10.223380 -22.496728 -0.702559 5.357566 -14.931405 0.860415 1.287954 -1.946783 -2.291484 1.374554 -5.490013 -2.869855 0.476061 -4.495975 -30.451352 -7.601118 15.869461 43.989816 -19.588420 -5.400243 22.980020 -13.122477 4.425988 0.000000 0.000000 0.000000 8.744834 14.436083 -20.332472 43.549250 -50.037329 21.120947 17.106064 -52.371018 12.499241 0.000000 0.000000 0.000000 -7.125000 0.000000 0.000000 -7.035395 16.983076 -4.709614 0.000000 0.000000 0.000000 -4.437166 14.825696 18.806128 -20.881690 -31.689993 -5.987633 0.740912 16.081237 12.935446 0.000000 0.000000 0.000000 7.125000 0.000000 0.000000 24.714160 41.512977 2.288588
